<svg width="130" height="129" viewBox="0 0 130 129" fill="none" xmlns="http://www.w3.org/2000/svg">
<path d="M79.6613 46.694C79.6613 53.4481 74.1798 58.9234 67.4179 58.9234C60.6561 58.9234 55.1746 53.4481 55.1746 46.694C55.1746 39.9399 60.6561 34.4646 67.4179 34.4646C74.1798 34.4646 79.6613 39.9399 79.6613 46.694Z" fill="#FFC131"/>
<ellipse cx="46.8267" cy="81.7145" rx="12.2434" ry="12.2294" transform="rotate(180 46.8267 81.7145)" fill="#24C8DB"/>
<path fill-rule="evenodd" clip-rule="evenodd" d="M92.7927 85.9105C87.8519 89.1001 82.3773 91.3141 76.6642 92.4656C77.8337 89.0976 78.469 85.4802 78.469 81.7146C78.469 80.3487 78.3854 79.0023 78.2231 77.6803C80.6811 76.8252 83.0409 75.677 85.2489 74.2516C90.562 70.8216 94.7706 65.9322 97.3689 60.1709C99.9673 54.4095 100.845 48.0213 99.8962 41.7738C98.9476 35.5263 96.2131 29.6852 92.0213 24.9525C87.8296 20.2199 82.3588 16.7968 76.2665 15.0947C70.1741 13.3926 63.7193 13.4839 57.6776 15.3576C51.6359 17.2312 46.2644 20.8076 42.2084 25.6569C41.6889 26.278 41.1938 26.9167 40.7238 27.5713C34.4648 28.2659 28.4027 30.0353 22.7966 32.7723C24.6214 26.9372 27.584 21.4899 31.5429 16.7566C37.3149 9.85568 44.9589 4.76627 53.5567 2.09991C62.1545 -0.566451 71.3401 -0.696333 80.01 1.72587C88.6799 4.14807 96.4652 9.01931 102.43 15.7543C108.396 22.4893 112.287 30.8015 113.637 39.6921C114.987 48.5828 113.738 57.6737 110.04 65.8725C106.343 74.0714 100.354 81.0294 92.7927 85.9105ZM23.3533 41.2881L34.8134 42.694C35.0862 40.4754 35.5839 38.3012 36.2927 36.2031C31.7474 37.2449 27.3856 38.9601 23.3533 41.2881Z" fill="#FFC131"/>
<path fill-rule="evenodd" clip-rule="evenodd" d="M21.3728 42.4981C26.3507 39.2846 31.8705 37.0613 37.6301 35.9172C36.328 39.4491 35.6171 43.2666 35.6171 47.2499C35.6171 48.4414 35.6807 49.618 35.8047 50.7765C33.3962 51.6265 31.0833 52.7582 28.9166 54.157C23.6035 57.587 19.3949 62.4764 16.7966 68.2377C14.1982 73.9991 13.3206 80.3873 14.2693 86.6348C15.2179 92.8823 17.9524 98.7234 22.1442 103.456C26.3359 108.189 31.8066 111.612 37.899 113.314C43.9914 115.016 50.4462 114.925 56.4879 113.051C62.5296 111.177 67.9011 107.601 71.9571 102.752C72.4792 102.127 72.9766 101.486 73.4488 100.827C79.713 100.122 85.7772 98.3408 91.3832 95.5904C89.5597 101.443 86.5919 106.906 82.6226 111.652C76.8506 118.553 69.2065 123.642 60.6088 126.309C52.011 128.975 42.8253 129.105 34.1555 126.683C25.4856 124.261 17.7003 119.389 11.7351 112.654C5.76993 105.919 1.87856 97.6071 0.528593 88.7165C-0.821375 79.8258 0.427483 70.7349 4.12511 62.536C7.82274 54.3372 13.8118 47.3792 21.3728 42.4981ZM90.7466 87.1125L90.7465 87.1125C90.6472 87.1699 90.5477 87.2269 90.448 87.2835C90.5477 87.2269 90.6473 87.1699 90.7466 87.1125ZM78.8165 91.9587C78.5049 92.0375 78.1926 92.1131 77.8796 92.1855C77.8796 92.1855 77.8795 92.1855 77.8795 92.1856C78.1927 92.1132 78.5051 92.0375 78.8165 91.9587Z" fill="#24C8DB"/>
</svg>
